<?xml version="1.0" encoding="utf-8"?>
<!-- Generator: Adobe Illustrator 21.1.0, SVG Export Plug-In . SVG Version: 6.00 Build 0)  -->
<svg version="1.1" id="Livello_1" xmlns="http://www.w3.org/2000/svg" xmlns:xlink="http://www.w3.org/1999/xlink" x="0px" y="0px"
	 viewBox="0 0 425.2 425.2" style="enable-background:new 0 0 425.2 425.2;" xml:space="preserve">
<style type="text/css">
	.st0{fill:url(#SVGID_1_);}
	.st1{display:none;fill:#FFDE29;}
	.st2{font-family:'Avenir-Black';}
	.st3{font-size:130px;}
	.st4{letter-spacing:-8;}
	.st5{display:none;fill:url(#SVGID_2_);}
	.st6{fill:url(#SVGID_3_);}
	.st7{fill:url(#SVGID_4_);}
	.st8{opacity:0.8;}
	.st9{fill:url(#SVGID_5_);}
	.st10{fill:url(#SVGID_6_);}
	.st11{fill:url(#SVGID_7_);}
	.st12{fill:url(#SVGID_8_);}
</style>
<linearGradient id="SVGID_1_" gradientUnits="userSpaceOnUse" x1="413.8084" y1="374.0889" x2="43.5463" y2="3.8269" gradientTransform="matrix(6.123234e-17 1 -1 6.123234e-17 401.5563 -16.0789)">
	<stop  offset="2.218002e-03" style="stop-color:#4093C2"/>
	<stop  offset="0.9995" style="stop-color:#204688"/>
</linearGradient>
<path class="st0" d="M0,331.7V93.5C0,42.1,42.1,0,93.5,0h238.2c51.4,0,93.5,42.1,93.5,93.5v238.2c0,51.4-42.1,93.5-93.5,93.5H93.5
	C42.1,425.2,0,383.1,0,331.7z"/>
<text transform="matrix(1 0 0 1 86.3698 238.403)" class="st1 st2 st3 st4">COF</text>
<radialGradient id="SVGID_2_" cx="212.5984" cy="212.5984" r="158.4615" gradientUnits="userSpaceOnUse">
	<stop  offset="0" style="stop-color:#FFFF7D"/>
	<stop  offset="0.1319" style="stop-color:#FFF666"/>
	<stop  offset="0.3388" style="stop-color:#FFEC4B"/>
	<stop  offset="0.5503" style="stop-color:#FFE438"/>
	<stop  offset="0.7676" style="stop-color:#FFDF2D"/>
	<stop  offset="0.999" style="stop-color:#FFDE29"/>
</radialGradient>
<rect y="141.7" class="st5" width="425.2" height="141.7"/>
<g>
	
		<image style="overflow:visible;opacity:0.7;" width="1843" height="663" xlink:href="98001A00A17A8219.png"  transform="matrix(0.24 0 0 0.24 -8.5705 131.5895)">
	</image>
	<g>
		<radialGradient id="SVGID_3_" cx="212.5984" cy="212.5984" r="158.4615" gradientUnits="userSpaceOnUse">
			<stop  offset="0" style="stop-color:#FFFF7D"/>
			<stop  offset="0.1319" style="stop-color:#FFF666"/>
			<stop  offset="0.3388" style="stop-color:#FFEC4B"/>
			<stop  offset="0.5503" style="stop-color:#FFE438"/>
			<stop  offset="0.7676" style="stop-color:#FFDF2D"/>
			<stop  offset="0.999" style="stop-color:#FFDE29"/>
		</radialGradient>
		<rect y="141.7" class="st6" width="425.2" height="141.7"/>
	</g>
</g>
<linearGradient id="SVGID_4_" gradientUnits="userSpaceOnUse" x1="375.2868" y1="486.4444" x2="550.4855" y2="661.6431" gradientTransform="matrix(-3.095727e-02 0.564 -0.564 3.095727e-02 390.0975 51.4712)">
	<stop  offset="0" style="stop-color:#000000;stop-opacity:0.5"/>
	<stop  offset="1" style="stop-color:#000000;stop-opacity:0"/>
</linearGradient>
<path class="st7" d="M45.9,219.9L0,265.8v65.9c0,45.3,32.6,83.3,75.4,91.7l87-87L45.9,219.9z"/>
<g class="st8">
	
		<image style="overflow:visible;opacity:0.7;" width="1472" height="1094" xlink:href="98001A00A17A821B.png"  transform="matrix(0.24 0 0 0.24 34.8695 81.6695)">
	</image>
	<g>
		<g>
			<linearGradient id="SVGID_5_" gradientUnits="userSpaceOnUse" x1="44.9034" y1="214.3325" x2="380.9664" y2="214.3325">
				<stop  offset="0" style="stop-color:#FFFF25"/>
				<stop  offset="1.070546e-02" style="stop-color:#FFF423"/>
				<stop  offset="7.070702e-02" style="stop-color:#FFBC17"/>
				<stop  offset="0.1325" style="stop-color:#FF8A11"/>
				<stop  offset="0.1948" style="stop-color:#FF600C"/>
				<stop  offset="0.2576" style="stop-color:#FF3E08"/>
				<stop  offset="0.3211" style="stop-color:#FF2406"/>
				<stop  offset="0.3857" style="stop-color:#FF1303"/>
				<stop  offset="0.4519" style="stop-color:#FF0901"/>
				<stop  offset="0.5225" style="stop-color:#FF0000"/>
				<stop  offset="1" style="stop-color:#F70F38"/>
			</linearGradient>
			<path class="st9" d="M44.9,220.8l26.8-27l90.2,89.9L354.4,91.6l26.5,27.3L161.8,337L44.9,220.8z"/>
		</g>
	</g>
</g>
<g>
	
		<image style="overflow:visible;opacity:0.75;" width="1283" height="545" xlink:href="98001A00A17A821E.png"  transform="matrix(0.24 0 0 0.24 60.0695 148.6295)">
	</image>
	<g>
		<g>
			<linearGradient id="SVGID_6_" gradientUnits="userSpaceOnUse" x1="61.0154" y1="234.3614" x2="354.1211" y2="133.001">
				<stop  offset="0" style="stop-color:#383838"/>
				<stop  offset="1" style="stop-color:#252525"/>
			</linearGradient>
			<path class="st10" d="M146.8,184c-1.7,1.4-4.2,1.4-5.9-0.1c-1.8-1.6-3.8-2.8-6-3.8c-3.4-1.5-7.3-2.3-11.8-2.3
				c-4.5,0-8.6,0.9-12.4,2.6c-3.8,1.7-7.1,4.1-9.9,7.2c-2.8,3.1-5,6.8-6.6,11c-1.6,4.3-2.4,8.9-2.4,13.9c0,5.1,0.8,9.7,2.4,13.9
				c1.6,4.2,3.7,7.9,6.5,11c2.7,3.1,6,5.5,9.7,7.2c3.7,1.7,7.7,2.6,12,2.6c4.9,0,9.2-1,13-3c2.6-1.4,4.8-3.2,6.8-5.3
				c1.6-1.7,4.2-1.9,6.1-0.5l12.4,9.3c2.1,1.6,2.5,4.7,0.7,6.7c-4,4.5-8.8,7.9-14.3,10.3c-7,3-14.2,4.6-21.6,4.6
				c-8.4,0-16.2-1.3-23.3-4c-7.1-2.6-13.3-6.4-18.4-11.4c-5.2-4.9-9.2-10.9-12.1-17.9c-2.9-7-4.3-14.8-4.3-23.5
				c0-8.6,1.4-16.5,4.3-23.5c2.9-7,6.9-13,12.1-17.9c5.2-4.9,11.3-8.7,18.4-11.4c7.1-2.6,14.9-4,23.3-4c3,0,6.2,0.3,9.5,0.8
				c3.3,0.6,6.6,1.4,9.8,2.7s6.3,2.8,9.2,4.9c1.6,1.1,3,2.3,4.4,3.6c2,1.9,1.9,5.1-0.2,6.9L146.8,184z"/>
			<linearGradient id="SVGID_7_" gradientUnits="userSpaceOnUse" x1="71.2822" y1="264.0503" x2="364.388" y2="162.6899">
				<stop  offset="0" style="stop-color:#383838"/>
				<stop  offset="1" style="stop-color:#252525"/>
			</linearGradient>
			<path class="st11" d="M161.8,212.6c0-8.6,1.4-16.5,4.3-23.5c2.9-7,6.9-13,12.1-17.9c5.2-4.9,11.3-8.7,18.4-11.4
				c7.1-2.6,14.9-4,23.3-4c8.4,0,16.2,1.3,23.3,4c7.1,2.6,13.3,6.4,18.4,11.4c5.2,4.9,9.2,10.9,12.1,17.9c2.9,7,4.3,14.8,4.3,23.5
				c0,8.6-1.4,16.5-4.3,23.5c-2.9,7-6.9,13-12.1,17.9c-5.2,4.9-11.3,8.7-18.4,11.4c-7.1,2.6-14.9,4-23.3,4c-8.4,0-16.2-1.3-23.3-4
				c-7.1-2.6-13.3-6.4-18.4-11.4c-5.2-4.9-9.2-10.9-12.1-17.9C163.3,229.1,161.8,221.2,161.8,212.6z M186.5,212.6
				c0,5.1,0.8,9.7,2.4,13.9c1.6,4.2,3.8,7.9,6.8,11c2.9,3.1,6.5,5.5,10.6,7.2c4.1,1.7,8.7,2.6,13.8,2.6c5.1,0,9.7-0.9,13.8-2.6
				c4.1-1.7,7.6-4.1,10.6-7.2c2.9-3.1,5.2-6.8,6.8-11c1.6-4.2,2.4-8.9,2.4-13.9c0-5-0.8-9.6-2.4-13.9c-1.6-4.3-3.8-7.9-6.8-11
				c-2.9-3.1-6.5-5.5-10.6-7.2c-4.1-1.7-8.7-2.6-13.8-2.6c-5.1,0-9.7,0.9-13.8,2.6c-4.1,1.7-7.6,4.1-10.6,7.2
				c-2.9,3.1-5.2,6.8-6.8,11C187.3,203,186.5,207.6,186.5,212.6z"/>
			<linearGradient id="SVGID_8_" gradientUnits="userSpaceOnUse" x1="79.5516" y1="287.963" x2="372.6573" y2="186.6026">
				<stop  offset="0" style="stop-color:#383838"/>
				<stop  offset="1" style="stop-color:#252525"/>
			</linearGradient>
			<path class="st12" d="M290.2,158.6h63.2c2.5,0,4.6,2.1,4.6,4.6V176c0,2.5-2.1,4.6-4.6,4.6H314c-2.5,0-4.6,2.1-4.6,4.6V198
				c0,2.5,2.1,4.6,4.6,4.6h35.8c2.5,0,4.6,2.1,4.6,4.6v12.8c0,2.5-2.1,4.6-4.6,4.6H314c-2.5,0-4.6,2.1-4.6,4.6V262
				c0,2.5-2.1,4.6-4.6,4.6h-14.6c-2.5,0-4.6-2.1-4.6-4.6v-98.7C285.6,160.7,287.6,158.6,290.2,158.6z"/>
		</g>
	</g>
</g>
</svg>
