<?xml version="1.0" encoding="utf-8"?>
<!-- Generator: Adobe Illustrator 26.3.1, SVG Export Plug-In . SVG Version: 6.00 Build 0)  -->
<svg version="1.1" id="Livello_1" xmlns="http://www.w3.org/2000/svg" xmlns:xlink="http://www.w3.org/1999/xlink" x="0px" y="0px"
	 viewBox="0 0 425.2 425.2" style="enable-background:new 0 0 425.2 425.2;" xml:space="preserve">
<style type="text/css">
	.st0{fill:none;}
	.st1{fill:url(#SVGID_1_);}
	.st2{fill:url(#SVGID_00000087399225958406789260000005951992769409833370_);}
	.st3{fill:url(#SVGID_00000082335655668851886890000002197945811277726884_);}
	.st4{fill:url(#SVGID_00000165943523141978899550000003283205978271734970_);}
	.st5{fill:url(#SVGID_00000149339707955823817470000005126503704877874590_);}
	.st6{fill:url(#SVGID_00000065795688059188830420000018134889831201681599_);}
	.st7{fill:url(#SVGID_00000126302469328385979480000003916288211815517572_);}
	.st8{fill:url(#SVGID_00000044173206198032010000000000551189198131915910_);}
	.st9{fill:url(#SVGID_00000155106355242608343320000004374827517680210622_);}
	.st10{fill:url(#SVGID_00000055680667053248878080000017484915487293073283_);}
	.st11{display:none;fill:url(#SVGID_00000064349187832931588080000011754238936459038374_);}
	.st12{fill:url(#SVGID_00000072983551892943070310000009174934121293569944_);}
	.st13{fill:url(#SVGID_00000082370289916768836550000005055983711785396633_);}
	.st14{fill:url(#SVGID_00000103964174689695492420000002664598570176365441_);}
</style>
<path class="st0" d="M159.56,114.09c1.27,0.51,2.52,1.03,3.73,1.55C162.07,115.12,160.83,114.6,159.56,114.09z"/>
<path class="st0" d="M214.01,149.41c0.46-0.12,0.93-0.23,1.41-0.35c0.92-0.22,1.83-0.42,2.72-0.61c-0.89,0.19-1.8,0.39-2.72,0.61
	C214.94,149.17,214.47,149.29,214.01,149.41z"/>
<path class="st0" d="M172.12,132.05c6.5-0.39,12.69-0.57,18.53-0.61c-1.41-1.04-2.99-2.18-4.75-3.36c1.75,1.19,3.34,2.32,4.75,3.36
	C184.8,131.47,178.61,131.66,172.12,132.05z"/>
<linearGradient id="SVGID_1_" gradientUnits="userSpaceOnUse" x1="34.6407" y1="123.7923" x2="190.6454" y2="123.7923">
	<stop  offset="0" style="stop-color:#EB615F"/>
	<stop  offset="1" style="stop-color:#CB242D"/>
</linearGradient>
<path class="st1" d="M101.44,143.68c2.89-0.79,5.86-1.56,8.92-2.31c2.04-0.5,4.12-0.99,6.24-1.47c1.06-0.24,2.13-0.47,3.2-0.71
	c7.54-1.62,15.53-3.08,23.95-4.28c7.55-1.08,14.82-1.86,21.77-2.41c2.23-0.18,4.43-0.33,6.6-0.46c6.5-0.39,12.69-0.57,18.53-0.61
	c-1.41-1.04-2.99-2.18-4.75-3.36c-0.62-0.42-1.27-0.85-1.94-1.29c-1.06-0.69-2.17-1.4-3.34-2.12c-0.88-0.54-1.8-1.09-2.74-1.64
	c-0.74-0.43-1.5-0.86-2.27-1.29c-0.45-0.25-0.9-0.5-1.36-0.75c-1.3-0.7-2.63-1.41-4.03-2.1c-2.19-1.1-4.5-2.18-6.93-3.24
	c-1.21-0.53-2.46-1.05-3.73-1.55c-2.55-1.02-5.21-1.99-7.99-2.91c-4.17-1.37-8.6-2.61-13.29-3.64c-8.72,4.2-26.27,11.21-49.26,10.54
	c-26.82-0.78-46.13-11.57-54.38-16.85c0.66,4.98,3.12,18.4,14.29,29.77c17.31,17.62,40.94,15.43,44.11,15.08
	c1.35-0.41,2.73-0.81,4.13-1.21C98.57,144.47,99.99,144.07,101.44,143.68z"/>
<linearGradient id="SVGID_00000069391543980178225840000001205665999488290432_" gradientUnits="userSpaceOnUse" x1="248.4095" y1="24.1567" x2="521.2508" y2="296.998">
	<stop  offset="0" style="stop-color:#C9B13C"/>
	<stop  offset="1" style="stop-color:#FEF1AC"/>
</linearGradient>
<path style="fill:url(#SVGID_00000069391543980178225840000001205665999488290432_);" d="M234.79,146.35
	c11.68,7.37,26.56,17.68,42.75,31.46c1.16,0.98,2.32,1.99,3.49,3.01c1.17,1.02,2.34,2.06,3.52,3.12c1.18,1.06,2.37,2.13,3.56,3.22
	c1.78,1.64,3.58,3.32,5.38,5.04c1.2,1.15,2.41,2.32,3.62,3.5c1.81,1.78,3.63,3.6,5.45,5.47c3.62,3.7,7.25,7.57,10.88,11.62
	c9.63-5.64,19.48-10.92,29.6-15.75c3.79-1.81,7.6-3.6,11.52-5.08c12.17-4.59,25.56,3.54,27.75,16.25
	c-6.72-42.6-14.62-82.78-23.21-120.36c4.07-1.96,18.19-9.38,26.21-26.48c7.87-16.76,4.81-32.05,3.75-36.51l-19.99,8.03
	C356.82,36,345,32.07,336.23,27.65c-11.19-4.49-27.88-10.63-48.67-16.21c-34.97-9.39-52.87-13.97-73.24-8.57
	c-9.24,2.45-27.75,9.24-45.96,31.38c1.08,12.83,4.32,31.84,14.32,52.52C198.55,119.55,222.53,138.13,234.79,146.35z"/>
<linearGradient id="SVGID_00000053546873308940033230000002352191359645355140_" gradientUnits="userSpaceOnUse" x1="75.4542" y1="99.9213" x2="234.7934" y2="99.9213">
	<stop  offset="0" style="stop-color:#C9B13C"/>
	<stop  offset="1" style="stop-color:#FEF1AC"/>
</linearGradient>
<path style="fill:url(#SVGID_00000053546873308940033230000002352191359645355140_);" d="M202.64,153
	c3.39-1.29,7.19-2.53,11.37-3.59c0.46-0.12,0.93-0.23,1.41-0.35c0.92-0.22,1.83-0.42,2.72-0.61c5.37-1.13,10.28-1.71,14.57-1.99
	c0.71-0.05,1.41-0.08,2.09-0.11c-12.26-8.22-36.25-26.8-52.11-59.59c-10-20.68-13.24-39.69-14.32-52.52
	c-47.63,3.32-84.35,23.89-91.58,52.37c-1.38,5.44-2.04,12.56-0.17,21.45c11.91-2.83,34.46-6.53,61.67-0.52
	c4.68,1.03,9.12,2.27,13.29,3.64c2.78,0.91,5.45,1.89,7.99,2.91c1.27,0.51,2.52,1.03,3.73,1.55c2.43,1.05,4.74,2.14,6.93,3.24
	c1.39,0.7,2.73,1.4,4.03,2.1c0.46,0.25,0.91,0.5,1.36,0.75c0.77,0.43,1.53,0.86,2.27,1.29c0.94,0.55,1.86,1.1,2.74,1.64
	c1.17,0.72,2.28,1.43,3.34,2.12c0.67,0.44,1.31,0.87,1.94,1.29c1.75,1.19,3.34,2.32,4.75,3.36c-5.84,0.04-12.03,0.22-18.53,0.61
	c-2.17,0.13-4.37,0.28-6.6,0.46c-6.95,0.55-14.22,1.33-21.77,2.41c-8.42,1.2-16.42,2.66-23.95,4.28c-1.08,0.23-2.14,0.47-3.2,0.71
	c-2.12,0.48-4.2,0.97-6.24,1.47c-3.06,0.75-6.04,1.52-8.92,2.31c-1.44,0.39-2.86,0.79-4.26,1.19c-1.4,0.4-2.78,0.81-4.13,1.21
	c0,0,0,0,0,0c5.24,4.25,11.48,8.35,18.83,11.69c36.25,16.47,73.27,2.58,84.54-2.17c1.26-0.58,2.6-1.16,4.03-1.74
	C201.15,153.57,201.89,153.28,202.64,153z"/>
<linearGradient id="SVGID_00000008109812097711422750000002865673873404915371_" gradientUnits="userSpaceOnUse" x1="34.6407" y1="125.7219" x2="190.6454" y2="125.7219">
	<stop  offset="0" style="stop-color:#E84948"/>
	<stop  offset="1" style="stop-color:#CB242D"/>
</linearGradient>
<path style="fill:url(#SVGID_00000008109812097711422750000002865673873404915371_);" d="M180.62,124.66
	c1.17,0.72,2.28,1.43,3.34,2.12C182.9,126.09,181.79,125.38,180.62,124.66z"/>
<linearGradient id="SVGID_00000046333365602417988950000006547601459621240245_" gradientUnits="userSpaceOnUse" x1="75.4542" y1="125.7219" x2="234.7934" y2="125.7219">
	<stop  offset="0" style="stop-color:#C9B13C"/>
	<stop  offset="1" style="stop-color:#FEF1AC"/>
</linearGradient>
<path style="fill:url(#SVGID_00000046333365602417988950000006547601459621240245_);" d="M180.62,124.66
	c1.17,0.72,2.28,1.43,3.34,2.12C182.9,126.09,181.79,125.38,180.62,124.66z"/>
<linearGradient id="SVGID_00000005981834011607148730000006280333045232321449_" gradientUnits="userSpaceOnUse" x1="34.6406" y1="145.4768" x2="190.6454" y2="145.4768">
	<stop  offset="0" style="stop-color:#E84948"/>
	<stop  offset="1" style="stop-color:#CB242D"/>
</linearGradient>
<path style="fill:url(#SVGID_00000005981834011607148730000006280333045232321449_);" d="M97.17,144.87
	c-1.4,0.4-2.78,0.81-4.13,1.21c0,0,0,0,0,0C94.4,145.68,95.77,145.27,97.17,144.87z"/>
<linearGradient id="SVGID_00000183967845751431008380000000707054004774633123_" gradientUnits="userSpaceOnUse" x1="75.4542" y1="145.4768" x2="234.7934" y2="145.4768">
	<stop  offset="0" style="stop-color:#C9B13C"/>
	<stop  offset="1" style="stop-color:#FEF1AC"/>
</linearGradient>
<path style="fill:url(#SVGID_00000183967845751431008380000000707054004774633123_);" d="M97.17,144.87
	c-1.4,0.4-2.78,0.81-4.13,1.21c0,0,0,0,0,0C94.4,145.68,95.77,145.27,97.17,144.87z"/>
<linearGradient id="SVGID_00000000906660301865876770000012050120830982711446_" gradientUnits="userSpaceOnUse" x1="34.6406" y1="135.8495" x2="190.6454" y2="135.8495">
	<stop  offset="0" style="stop-color:#E84948"/>
	<stop  offset="1" style="stop-color:#CB242D"/>
</linearGradient>
<path style="fill:url(#SVGID_00000000906660301865876770000012050120830982711446_);" d="M119.8,139.2
	c7.54-1.62,15.53-3.08,23.95-4.28c7.55-1.08,14.82-1.86,21.77-2.41c-6.95,0.55-14.22,1.33-21.77,2.41
	C135.33,136.12,127.34,137.57,119.8,139.2z"/>
<linearGradient id="SVGID_00000114065277071604058080000001609619735274618013_" gradientUnits="userSpaceOnUse" x1="75.4542" y1="135.8495" x2="234.7934" y2="135.8495">
	<stop  offset="0" style="stop-color:#C9B13C"/>
	<stop  offset="1" style="stop-color:#FEF1AC"/>
</linearGradient>
<path style="fill:url(#SVGID_00000114065277071604058080000001609619735274618013_);" d="M119.8,139.2
	c7.54-1.62,15.53-3.08,23.95-4.28c7.55-1.08,14.82-1.86,21.77-2.41c-6.95,0.55-14.22,1.33-21.77,2.41
	C135.33,136.12,127.34,137.57,119.8,139.2z"/>
<linearGradient id="SVGID_00000047740805967109622250000009210075538381796005_" gradientUnits="userSpaceOnUse" x1="276.9141" y1="162.2174" x2="106.3816" y2="332.7498">
	<stop  offset="0" style="stop-color:#C9B13C"/>
	<stop  offset="1" style="stop-color:#FEF1AC"/>
</linearGradient>
<path style="fill:url(#SVGID_00000047740805967109622250000009210075538381796005_);" d="M148.82,349.14
	c35.13-36.83,72.47-71.23,113.2-101.82c16.55-12.44,33.6-24.09,51.42-34.52c-3.63-4.05-7.27-7.92-10.88-11.62
	c-1.82-1.87-3.64-3.69-5.45-5.47c-1.21-1.19-2.41-2.35-3.62-3.5c-1.8-1.72-3.6-3.4-5.38-5.04c-1.19-1.09-2.38-2.17-3.56-3.22
	c-1.18-1.06-2.35-2.1-3.52-3.12c-1.17-1.02-2.33-2.02-3.49-3.01c-16.19-13.79-31.07-24.09-42.75-31.46
	c-0.68,0.03-1.37,0.07-2.09,0.11c-4.28,0.27-9.2,0.86-14.57,1.99c-0.89,0.19-1.8,0.39-2.72,0.61c-0.47,0.11-0.94,0.23-1.41,0.35
	c-4.18,1.06-7.98,2.3-11.37,3.59c-0.75,0.29-1.49,0.58-2.2,0.87c-1.43,0.58-2.77,1.17-4.03,1.74c3.69,22.4,8.89,72.71-13.06,130.32
	c-10.89,28.57-25.52,51.26-39.46,68.48c0.02,0.02,0.03,0.04,0.05,0.06C145.78,352.46,147.27,350.77,148.82,349.14z"/>
<path d="M382.46,209.06c-0.04-0.29-0.09-0.57-0.14-0.85c0.05,0.3,0.1,0.61,0.14,0.91C382.47,209.11,382.46,209.08,382.46,209.06z"/>
<linearGradient id="SVGID_00000002376400492855009410000002856839963244979840_" gradientUnits="userSpaceOnUse" x1="329.8169" y1="298.8851" x2="179.3616" y2="39.3336">
	<stop  offset="0.1421" style="stop-color:#000000;stop-opacity:0.5"/>
	<stop  offset="0.4175" style="stop-color:#FEF1AC;stop-opacity:0"/>
</linearGradient>
<path style="display:none;fill:url(#SVGID_00000002376400492855009410000002856839963244979840_);" d="M385.33,61.38
	c7.87-16.76,4.81-32.05,3.75-36.51l-19.99,8.03C356.82,36,345,32.07,336.23,27.65c-11.19-4.49-27.88-10.63-48.67-16.21
	c-34.97-9.39-52.87-13.97-73.24-8.57c-9.24,2.45-27.75,9.24-45.96,31.38c1.08,12.83,4.32,31.84,14.32,52.52
	c15.86,32.79,39.85,51.37,52.11,59.59c-0.68,0.03-1.37,0.07-2.09,0.11c-4.28,0.27-9.2,0.86-14.57,1.99
	c-0.89,0.19-1.8,0.39-2.72,0.61c-0.47,0.11-0.94,0.23-1.41,0.35c-4.18,1.06-7.98,2.3-11.37,3.59c-0.75,0.29-1.49,0.58-2.2,0.87
	c-1.43,0.58-2.77,1.17-4.03,1.74c3.69,22.4,8.89,72.71-13.06,130.32c-10.89,28.57-25.52,51.26-39.46,68.48
	c0.02,0.02,0.03,0.04,0.05,0.06c1.83-2,3.32-3.69,4.88-5.32c35.13-36.83,72.47-71.23,113.2-101.82
	c16.55-12.44,33.6-24.09,51.42-34.52c9.63-5.64,19.48-10.92,29.6-15.75c3.79-1.81,7.6-3.6,11.52-5.08
	c12.17-4.59,25.56,3.54,27.75,16.25c-6.72-42.6-14.62-82.78-23.21-120.36C363.19,85.89,377.31,78.48,385.33,61.38z"/>
<linearGradient id="SVGID_00000047029793222301036210000008836438138928478392_" gradientUnits="userSpaceOnUse" x1="64.2776" y1="354.1737" x2="144.3868" y2="354.1737">
	<stop  offset="0" style="stop-color:#135792"/>
	<stop  offset="0.0555" style="stop-color:#145A95"/>
	<stop  offset="0.3576" style="stop-color:#1C64A4"/>
	<stop  offset="0.6686" style="stop-color:#206BAE"/>
	<stop  offset="1" style="stop-color:#206DB3"/>
</linearGradient>
<path style="fill:url(#SVGID_00000047029793222301036210000008836438138928478392_);" d="M143.9,354.4
	c-0.15-0.19-0.28-0.35-0.41-0.51l0.46,0.57C143.93,354.44,143.92,354.42,143.9,354.4z"/>
<linearGradient id="SVGID_00000080916800170066021510000003588967809740141722_" gradientUnits="userSpaceOnUse" x1="54.922" y1="353.1369" x2="143.9464" y2="353.1369">
	<stop  offset="0" style="stop-color:#135792"/>
	<stop  offset="0.0555" style="stop-color:#145A95"/>
	<stop  offset="0.3576" style="stop-color:#1C64A4"/>
	<stop  offset="0.6686" style="stop-color:#206BAE"/>
	<stop  offset="1" style="stop-color:#206DB3"/>
</linearGradient>
<path style="fill:url(#SVGID_00000080916800170066021510000003588967809740141722_);" d="M142.29,352.39
	c0.32,0.42,0.69,0.87,1.2,1.5L142.29,352.39z"/>
<linearGradient id="SVGID_00000139973342990865895930000013568644523053766847_" gradientUnits="userSpaceOnUse" x1="180.9272" y1="176.3147" x2="305.1239" y2="418.3979">
	<stop  offset="0.2608" style="stop-color:#206DB3"/>
	<stop  offset="0.3287" style="stop-color:#3F7CBB"/>
	<stop  offset="0.4178" style="stop-color:#588DC5"/>
	<stop  offset="0.509" style="stop-color:#689BCC"/>
	<stop  offset="0.6026" style="stop-color:#71A4D1"/>
	<stop  offset="0.7023" style="stop-color:#75A7D3"/>
</linearGradient>
<path style="fill:url(#SVGID_00000139973342990865895930000013568644523053766847_);" d="M382.82,211.05
	c-1.44-10.37-3.12-20.34-4.97-29.88c-9.52,3.98-21.28,9.43-34.8,15.88c-10.12,4.84-19.97,10.12-29.6,15.75
	c-5.94,3.48-23.08,13.47-51.42,34.52c-5.37,3.99-48.51,36.19-80.04,67.32c-6.14,6.06-20.73,20.86-37.6,39.34
	c-0.1,0.11-0.34,0.37-0.44,0.48c-9.95-7.47-22.64-18.64-34.62-34.47c-9.52-12.58-15.98-24.66-20.36-34.53
	c-11.35,7.66-22.7,15.32-34.04,22.98c8.3,18.65,20.07,40.95,36.79,64.39c15.27,21.4,30.93,38.52,44.73,51.79
	c48.26-59.82,114.8-124.79,204.92-176.62c14.57-8.38,29.01-15.98,43.23-22.89C384.07,220.51,383.48,215.82,382.82,211.05z"/>
</svg>
